<mxfile host="app.diagrams.net" modified="2023-10-26T00:28:58.499Z" agent="Mozilla/5.0 (X11; Linux x86_64) AppleWebKit/537.36 (KHTML, like Gecko) Chrome/117.0.0.0 Safari/537.36" etag="LE_6TwdeghYbq_cHjdBf" version="22.0.8" type="github">
  <diagram name="Page-1" id="rHf-2g9ayCuJwLOaAUa7">
    <mxGraphModel dx="1467" dy="878" grid="1" gridSize="10" guides="1" tooltips="1" connect="1" arrows="1" fold="1" page="1" pageScale="1" pageWidth="850" pageHeight="1100" math="0" shadow="0">
      <root>
        <mxCell id="0" />
        <mxCell id="1" parent="0" />
        <mxCell id="Ogc9YGwoQ0WArNv0BePN-1" value="&lt;font style=&quot;font-size: 31px;&quot;&gt;Users&lt;/font&gt;" style="rounded=1;whiteSpace=wrap;html=1;" parent="1" vertex="1">
          <mxGeometry x="90" y="240" width="260" height="110" as="geometry" />
        </mxCell>
        <mxCell id="Sc_OwSzwAc0kMPzcqKLi-2" style="edgeStyle=orthogonalEdgeStyle;rounded=0;orthogonalLoop=1;jettySize=auto;html=1;exitX=1;exitY=0.5;exitDx=0;exitDy=0;" edge="1" parent="1" source="Ogc9YGwoQ0WArNv0BePN-2" target="Ogc9YGwoQ0WArNv0BePN-5">
          <mxGeometry relative="1" as="geometry" />
        </mxCell>
        <mxCell id="Ogc9YGwoQ0WArNv0BePN-2" value="&lt;font style=&quot;font-size: 21px;&quot;&gt;User Responses&lt;/font&gt;" style="rounded=1;whiteSpace=wrap;html=1;" parent="1" vertex="1">
          <mxGeometry x="240" y="390" width="120" height="60" as="geometry" />
        </mxCell>
        <mxCell id="Ogc9YGwoQ0WArNv0BePN-4" value="&lt;font style=&quot;font-size: 24px;&quot;&gt;DB&lt;/font&gt;" style="shape=cylinder3;whiteSpace=wrap;html=1;boundedLbl=1;backgroundOutline=1;size=15;" parent="1" vertex="1">
          <mxGeometry x="395" y="40" width="60" height="80" as="geometry" />
        </mxCell>
        <mxCell id="Ogc9YGwoQ0WArNv0BePN-6" value="" style="group" parent="1" vertex="1" connectable="0">
          <mxGeometry x="470" y="280" width="120" height="220" as="geometry" />
        </mxCell>
        <mxCell id="Ogc9YGwoQ0WArNv0BePN-5" value="Answers:&lt;br&gt;1&lt;br&gt;2&lt;br&gt;3&lt;br&gt;4&lt;br&gt;5" style="rounded=0;whiteSpace=wrap;html=1;" parent="Ogc9YGwoQ0WArNv0BePN-6" vertex="1">
          <mxGeometry x="10" y="60" width="100" height="160" as="geometry" />
        </mxCell>
        <mxCell id="Ogc9YGwoQ0WArNv0BePN-3" value="&lt;font style=&quot;font-size: 23px;&quot;&gt;Questions&lt;/font&gt;" style="shape=step;perimeter=stepPerimeter;whiteSpace=wrap;html=1;fixedSize=1;" parent="Ogc9YGwoQ0WArNv0BePN-6" vertex="1">
          <mxGeometry width="120" height="80" as="geometry" />
        </mxCell>
        <mxCell id="Sc_OwSzwAc0kMPzcqKLi-3" value="" style="endArrow=none;html=1;rounded=0;exitX=0.5;exitY=0;exitDx=0;exitDy=0;entryX=0.646;entryY=1.003;entryDx=0;entryDy=0;entryPerimeter=0;" edge="1" parent="1" source="Ogc9YGwoQ0WArNv0BePN-2" target="Ogc9YGwoQ0WArNv0BePN-1">
          <mxGeometry width="50" height="50" relative="1" as="geometry">
            <mxPoint x="260" y="380" as="sourcePoint" />
            <mxPoint x="310" y="330" as="targetPoint" />
          </mxGeometry>
        </mxCell>
      </root>
    </mxGraphModel>
  </diagram>
</mxfile>
